# xmcd CD database file generated by MAGIX-FreeDB-MP3_Maker_15 v2.0beta1
# 
# Track frame offsets:
#      150
#      10179
#      23000
#      36731
#      48274
#      61085
#      74320
#      90291
#      102589
#      116127
#      130385
#      141807
#      156929
#      166880
#      179933
#      191709
# 
# Disc length: 2726 seconds
# 
# Revision: 0 
# Processed by: cddbd v1.5.2PL0 Copyright (c) Steve Scherf et al.
# Submitted via: MAGIX-FreeDB-MP3_Maker_15 v2.0beta1
# 
DISCID=e40aa410
DTITLE=Various Artist - Highway Blues
DYEAR=2009
DGENRE=
TTITLE0=John Lee Hooker - Dimples
TTITLE1=Muddy Waters - I got my mojo working
TTITLE2=Howlin' Wolf - Smokestack Lightning
TTITLE3=Ray Chalres - CC Rider
TTITLE4=Robert Jackson - Rambling on my mind
TTITLE5=BB King - Woke up this morning
TTITLE6=Maxine Sullivan - It ain't necessarilly so
TTITLE7=Little Walter - Juke
TTITLE8=BHig Joe Turner - Going to Chicago Blues
TTITLE9=Mephis Minnie - When the levee breaks
TTITLE10=Leadbelly - Rock Island Line
TTITLE11=Mildred Bailey - Georgia on my mind
TTITLE12=Jimmy Reed - Ain't that lovin' you baby
TTITLE13=Dinah Washington - Rich man's blues
TTITLE14=Buddy Guy - Try to quit you baby
TTITLE15=Muddy Waters - I'm your hoochie coochie man
EXTD=
EXTT0=
EXTT1=
EXTT2=
EXTT3=
EXTT4=
EXTT5=
EXTT6=
EXTT7=
EXTT8=
EXTT9=
EXTT10=
EXTT11=
EXTT12=
EXTT13=
EXTT14=
EXTT15=
PLAYORDER=
